<svg width="72" height="72" viewBox="0 0 72 72" fill="none" xmlns="http://www.w3.org/2000/svg">
  <path d="M36 48C31 41 31 34 36 28C41 34 41 41 36 48Z" fill="#C8A96B"/>
  <path d="M25 47C22 40 24 34 30 29C32 36 31 42 25 47Z" fill="#D9BE8A"/>
  <path d="M47 47C41 42 40 36 42 29C48 34 50 40 47 47Z" fill="#D9BE8A"/>
  <path d="M18 50C18 43 22 39 29 37C28 44 25 49 18 50Z" fill="#EFE4CF"/>
  <path d="M54 50C47 49 44 44 43 37C50 39 54 43 54 50Z" fill="#EFE4CF"/>
  <path d="M16 54H56" stroke="#1F5D3A" stroke-width="2.5" stroke-linecap="round"/>
  <path d="M23 58H49" stroke="#1F5D3A" stroke-width="2" stroke-linecap="round" opacity="0.7"/>
</svg>
