<svg width="260" height="26" viewBox="0 0 260 26" fill="none" xmlns="http://www.w3.org/2000/svg">
  <path d="M4 13h98M158 13h98" stroke="#6F8E56" stroke-width="1.8" stroke-linecap="round"/>
  <circle cx="16" cy="13" r="2.2" fill="#6F8E56"/>
  <circle cx="244" cy="13" r="2.2" fill="#6F8E56"/>
  <path d="M130 19c-5-6-5-11 0-15 5 4 5 9 0 15Z" fill="#C8A96B"/>
  <path d="M120 18c-3-5-2-9 2-12 2 4 2 8-2 12Z" fill="#D9BE8A"/>
  <path d="M140 18c-4-4-4-8-2-12 4 3 5 7 2 12Z" fill="#D9BE8A"/>
  <path d="M114 20c1-4 4-6 9-7-1 4-4 7-9 7ZM146 20c-5 0-8-3-9-7 5 1 8 3 9 7Z" fill="#EFE4CF"/>
</svg>
