<svg width="220" height="140" viewBox="0 0 220 140" fill="none" xmlns="http://www.w3.org/2000/svg">
  <g opacity="0.9">
    <path d="M142 58c8-17 22-28 43-34-2 23-13 38-32 47-5 2-9 3-14 4" fill="#8BA26F"/>
    <path d="M139 61c-11-10-16-22-15-39 17 6 28 17 32 32 1 4 1 8 0 12" fill="#6F8E56"/>
    <path d="M127 72c-16-2-28-10-38-24 18-8 33-7 45 2 3 3 6 6 8 10" fill="#95AE75"/>
    <path d="M153 74c16 0 28 7 39 20-16 8-31 8-43 0-4-3-7-7-10-12" fill="#7E9B61"/>
    <path d="M110 86c10 2 18 8 24 18-12 4-22 3-30-4-2-2-4-4-5-8" fill="#A8BC8B"/>
    <path d="M168 43c3-11 10-19 22-26-1 13-7 23-17 29-2 1-4 2-7 3" fill="#7A965D"/>
    <path d="M93 83c-8 6-12 14-13 24 12-3 20-9 24-18 1-2 1-4 1-7" fill="#88A468"/>
    <path d="M156 89c7 7 10 15 10 25-11-3-18-10-21-20-1-2-1-4 0-5" fill="#97AF78"/>
  </g>
  <path d="M46 124c30-8 56-26 78-54" stroke="#6D8A54" stroke-width="3" stroke-linecap="round" opacity="0.75"/>
  <path d="M62 133c21-8 38-22 52-42" stroke="#7B9860" stroke-width="2.4" stroke-linecap="round" opacity="0.7"/>
</svg>
